<svg xmlns="http://www.w3.org/2000/svg" viewBox="-0.5 -0.5 24 24" id="Search-Coding--Streamline-Pixel.svg" height="24" width="24"><desc>Search Coding Streamline Icon: https://streamlinehq.com</desc><title>search-coding</title><g><path d="M21.36125 16.98046875h-1.0996875V15.884375h-1.0925v-1.0925h-1.0996875v-2.1921874999999997h-1.0925v2.1921874999999997H15.884375v1.0925h-1.0996875v1.0996875h-2.185v1.0925h2.185v1.0925h1.0996875v1.0996875h1.0925v1.0925h1.0925v1.0925h3.291875v-1.0925h1.0925v-3.2846875000000004h-1.0925Zm0 3.2846875000000004h-1.0996875v-1.0996875h-1.0925v-1.0925h-1.0996875v-1.0925h1.0996875v1.0925h1.0925v1.0925h1.0996875Z" fill="#d672e2" stroke-width="1"></path><path d="M18.069375 7.11921875h1.0996875v5.476875h-1.0996875Z" fill="#d672e2" stroke-width="1"></path><path d="M16.976875 4.927031250000001h1.0925v2.1921874999999997h-1.0925Z" fill="#d672e2" stroke-width="1"></path><path d="M15.884375 3.83453125h1.0925v1.0925H15.884375Z" fill="#d672e2" stroke-width="1"></path><path d="M14.7846875 9.31140625h1.0996875v1.0925h-1.0996875Z" fill="#d672e2" stroke-width="1"></path><path d="M14.7846875 2.74203125h1.0996875v1.0925h-1.0996875Z" fill="#d672e2" stroke-width="1"></path><path d="M13.692187500000001 10.40390625h1.0925v1.0996875h-1.0925Z" fill="#d672e2" stroke-width="1"></path><path d="M13.692187500000001 8.211718750000001h1.0925v1.0996875h-1.0925Z" fill="#d672e2" stroke-width="1"></path><path d="M12.599687500000002 11.503593749999999h1.0925v1.0925h-1.0925Z" fill="#d672e2" stroke-width="1"></path><path d="M12.599687500000002 7.11921875h1.0925v1.0925h-1.0925Z" fill="#d672e2" stroke-width="1"></path><path d="M12.599687500000002 1.6423437500000002h2.185v1.0996875h-2.185Z" fill="#d672e2" stroke-width="1"></path><path d="M7.1228125 18.07296875h5.476875v1.0925H7.1228125Z" fill="#d672e2" stroke-width="1"></path><path d="M10.4075 7.11921875H11.5v2.1921874999999997h-1.0925Z" fill="#d672e2" stroke-width="1"></path><path d="M9.307812499999999 9.31140625h1.0996875v1.0925h-1.0996875Z" fill="#d672e2" stroke-width="1"></path><path d="M8.2153125 10.40390625h1.0925v2.1921874999999997h-1.0925Z" fill="#d672e2" stroke-width="1"></path><path d="M7.1228125 0.54984375h5.476875v1.0925H7.1228125Z" fill="#d672e2" stroke-width="1"></path><path d="M4.930625 16.98046875h2.1921874999999997v1.0925H4.930625Z" fill="#d672e2" stroke-width="1"></path><path d="M6.023125 11.503593749999999h1.0996875v1.0925H6.023125Z" fill="#d672e2" stroke-width="1"></path><path d="M6.023125 7.11921875h1.0996875v1.0925H6.023125Z" fill="#d672e2" stroke-width="1"></path><path d="M4.930625 1.6423437500000002h2.1921874999999997v1.0996875H4.930625Z" fill="#d672e2" stroke-width="1"></path><path d="M4.930625 10.40390625h1.0925v1.0996875H4.930625Z" fill="#d672e2" stroke-width="1"></path><path d="M4.930625 8.211718750000001h1.0925v1.0996875H4.930625Z" fill="#d672e2" stroke-width="1"></path><path d="M3.838125 15.880781249999998h1.0925v1.0996875H3.838125Z" fill="#d672e2" stroke-width="1"></path><path d="M3.838125 9.31140625h1.0925v1.0925H3.838125Z" fill="#d672e2" stroke-width="1"></path><path d="M3.838125 2.74203125h1.0925v1.0925H3.838125Z" fill="#d672e2" stroke-width="1"></path><path d="M2.7384375 14.788281249999999h1.0996875v1.0925H2.7384375Z" fill="#d672e2" stroke-width="1"></path><path d="M2.7384375 3.83453125h1.0996875v1.0925H2.7384375Z" fill="#d672e2" stroke-width="1"></path><path d="M1.6459375 12.59609375h1.0925v2.1921874999999997H1.6459375Z" fill="#d672e2" stroke-width="1"></path><path d="M1.6459375 4.927031250000001h1.0925v2.1921874999999997H1.6459375Z" fill="#d672e2" stroke-width="1"></path><path d="M0.54625 7.11921875h1.0996875v5.476875H0.54625Z" fill="#d672e2" stroke-width="1"></path></g></svg>