<svg xmlns="http://www.w3.org/2000/svg" viewBox="-0.5 -0.5 24 24" id="Coding-Apps-Websites-Search-Bug--Streamline-Pixel.svg" height="24" width="24"><desc>Coding Apps Websites Search Bug Streamline Icon: https://streamlinehq.com</desc><title>coding-apps-websites-search-bug</title><g><path d="M21.35765625 16.976875h-1.0996875V15.884375h-1.0925v-1.0996875h-1.0925v-2.185h-1.0996875v2.185H15.884375v1.0996875h-1.0925v1.0925h-2.1921874999999997v1.0925h2.1921874999999997v1.0996875h1.0925v1.0925h1.0925v1.0996875h1.0996875v1.0925h3.2846875000000004v-1.0925h1.0925v-3.291875h-1.0925Zm0 3.2846875000000004h-1.0996875v-1.0925h-1.0925v-1.0996875h-1.0925v-1.0925h1.0925v1.0925h1.0925v1.0996875h1.0996875Z" fill="#000000" stroke-width="1"></path><path d="M18.07296875 7.1228125h1.0925v5.476875h-1.0925Z" fill="#000000" stroke-width="1"></path><path d="M16.97328125 4.930625h1.0996875v2.1921874999999997h-1.0996875Z" fill="#000000" stroke-width="1"></path><path d="M15.880781249999998 3.8309375h1.0925v1.0996875h-1.0925Z" fill="#000000" stroke-width="1"></path><path d="M14.788281249999999 2.7384375h1.0925v1.0925h-1.0925Z" fill="#000000" stroke-width="1"></path><path d="M13.68859375 4.930625h1.0996875v2.1921874999999997h-1.0996875Z" fill="#000000" stroke-width="1"></path><path d="M13.68859375 14.7846875h1.0996875v-2.185h-1.0996875v-2.1921874999999997H15.884375v-1.0996875h-2.1921874999999997V7.1228125h-1.0925V6.023125H11.5v1.0996875h-3.2846875000000004V6.023125H7.1156250000000005v1.0996875H6.01953125v2.185h-2.185v1.0996875h2.185v2.1921874999999997h-1.0925v2.185h1.0925v-1.0925h2.1921874999999997v1.0925H11.5v-1.0925h2.1921874999999997Zm-1.0925 -4.3771875h-2.1921874999999997v3.2846875000000004h-1.0925v-3.2846875000000004H7.1156250000000005v-1.0996875h5.476875Z" fill="#000000" stroke-width="1"></path><path d="M12.59609375 1.6459375h2.1921874999999997v1.0925h-2.1921874999999997Z" fill="#000000" stroke-width="1"></path><path d="M7.11921875 18.069375h5.476875v1.0996875h-5.476875Z" fill="#000000" stroke-width="1"></path><path d="m11.49640625 6.023125 0 -1.0925 1.0996875 0 0 -1.0996875 -2.1921874999999997 0 0 1.0996875 -1.0925 0 0 -1.0996875 -2.1921874999999997 0 0 1.0996875 1.0925 0 0 1.0925 3.2846875000000004 0z" fill="#000000" stroke-width="1"></path><path d="M7.11921875 0.54625h5.476875v1.0996875h-5.476875Z" fill="#000000" stroke-width="1"></path><path d="M4.927031250000001 16.976875h2.1921874999999997v1.0925h-2.1921874999999997Z" fill="#000000" stroke-width="1"></path><path d="M4.927031250000001 1.6459375h2.1921874999999997v1.0925h-2.1921874999999997Z" fill="#000000" stroke-width="1"></path><path d="M4.927031250000001 4.930625h1.0925v2.1921874999999997h-1.0925Z" fill="#000000" stroke-width="1"></path><path d="M3.83453125 15.884375h1.0925v1.0925h-1.0925Z" fill="#000000" stroke-width="1"></path><path d="M3.83453125 2.7384375h1.0925v1.0925h-1.0925Z" fill="#000000" stroke-width="1"></path><path d="M2.73484375 14.7846875h1.0996875v1.0996875h-1.0996875Z" fill="#000000" stroke-width="1"></path><path d="M2.73484375 3.8309375h1.0996875v1.0996875h-1.0996875Z" fill="#000000" stroke-width="1"></path><path d="M1.6423437500000002 12.599687500000002h1.0925v2.185h-1.0925Z" fill="#000000" stroke-width="1"></path><path d="M1.6423437500000002 4.930625h1.0925v2.1921874999999997h-1.0925Z" fill="#000000" stroke-width="1"></path><path d="M0.54984375 7.1228125h1.0925v5.476875H0.54984375Z" fill="#000000" stroke-width="1"></path></g></svg>