<svg width="32" height="32" viewBox="0 0 32 32" fill="none" xmlns="http://www.w3.org/2000/svg">
<path d="M29.5702 23.4454H28.0402V21.9204H26.5202V20.4004H24.9902V17.3504H23.4702V20.4004H21.9502V21.9204H20.4202V23.4504H17.3802V24.9704H20.4202V26.4904H21.9502V28.0204H23.4702V29.5404H24.9902V31.0604H29.5702V29.5404H31.0902V24.9704H29.5702V23.4454ZM29.5702 28.0154H28.0402V26.4854H26.5202V24.9654H24.9902V23.4454H26.5202V24.9654H28.0402V26.4854H29.5702V28.0154Z" fill="#D672E2"/>
<path d="M26.5202 9.72537H24.9902V17.3454H26.5202V9.72537Z" fill="#D672E2"/>
<path d="M24.9902 6.67537H23.4702V9.72537H24.9902V6.67537Z" fill="#D672E2"/>
<path d="M23.4702 5.15537H21.9502V6.67537H23.4702V5.15537Z" fill="#D672E2"/>
<path d="M21.9502 12.7754H20.4202V14.2954H21.9502V12.7754Z" fill="#D672E2"/>
<path d="M21.9502 3.63537H20.4202V5.15537H21.9502V3.63537Z" fill="#D672E2"/>
<path d="M20.4202 14.2954H18.9002V15.8254H20.4202V14.2954Z" fill="#D672E2"/>
<path d="M20.4202 11.2454H18.9002V12.7754H20.4202V11.2454Z" fill="#D672E2"/>
<path d="M18.9002 15.8254H17.3802V17.3454H18.9002V15.8254Z" fill="#D672E2"/>
<path d="M18.9002 9.72537H17.3802V11.2454H18.9002V9.72537Z" fill="#D672E2"/>
<path d="M20.4202 2.10537H17.3802V3.63537H20.4202V2.10537Z" fill="#D672E2"/>
<path d="M17.3802 24.9654H9.76022V26.4854H17.3802V24.9654Z" fill="#D672E2"/>
<path d="M15.8502 9.72537H14.3302V12.7754H15.8502V9.72537Z" fill="#D672E2"/>
<path d="M14.3302 12.7754H12.8002V14.2954H14.3302V12.7754Z" fill="#D672E2"/>
<path d="M12.8002 14.2954H11.2802V17.3454H12.8002V14.2954Z" fill="#D672E2"/>
<path d="M17.3802 0.585374H9.76022V2.10537H17.3802V0.585374Z" fill="#D672E2"/>
<path d="M9.76022 23.4454H6.71022V24.9654H9.76022V23.4454Z" fill="#D672E2"/>
<path d="M9.76022 15.8254H8.23022V17.3454H9.76022V15.8254Z" fill="#D672E2"/>
<path d="M9.76022 9.72537H8.23022V11.2454H9.76022V9.72537Z" fill="#D672E2"/>
<path d="M9.76022 2.10537H6.71022V3.63537H9.76022V2.10537Z" fill="#D672E2"/>
<path d="M8.23022 14.2954H6.71022V15.8254H8.23022V14.2954Z" fill="#D672E2"/>
<path d="M8.23022 11.2454H6.71022V12.7754H8.23022V11.2454Z" fill="#D672E2"/>
<path d="M6.71022 21.9154H5.19022V23.4454H6.71022V21.9154Z" fill="#D672E2"/>
<path d="M6.71022 12.7754H5.19022V14.2954H6.71022V12.7754Z" fill="#D672E2"/>
<path d="M6.71022 3.63537H5.19022V5.15537H6.71022V3.63537Z" fill="#D672E2"/>
<path d="M5.19022 20.3954H3.66022V21.9154H5.19022V20.3954Z" fill="#D672E2"/>
<path d="M5.19022 5.15537H3.66022V6.67537H5.19022V5.15537Z" fill="#D672E2"/>
<path d="M3.66022 17.3454H2.14022V20.3954H3.66022V17.3454Z" fill="#D672E2"/>
<path d="M3.66022 6.67537H2.14022V9.72537H3.66022V6.67537Z" fill="#D672E2"/>
<path d="M2.14022 9.72537H0.61022V17.3454H2.14022V9.72537Z" fill="#D672E2"/>
</svg>
